<svg xmlns="http://www.w3.org/2000/svg" xmlns:xlink="http://www.w3.org/1999/xlink" width="410" zoomAndPan="magnify" viewBox="0 0 307.5 89.999999" height="120" preserveAspectRatio="xMidYMid meet" version="1.0"><defs><g/><clipPath id="5505c0b64e"><path d="M 34 65 L 55 65 L 55 84.332031 L 34 84.332031 Z M 34 65 " clip-rule="nonzero"/></clipPath><clipPath id="ab81469229"><path d="M 44 5.710938 L 46 5.710938 L 46 12 L 44 12 Z M 44 5.710938 " clip-rule="nonzero"/></clipPath><clipPath id="702c739ce0"><path d="M 10.484375 33 L 16 33 L 16 36 L 10.484375 36 Z M 10.484375 33 " clip-rule="nonzero"/></clipPath><clipPath id="2668219dfb"><path d="M 10.484375 44 L 16 44 L 16 48 L 10.484375 48 Z M 10.484375 44 " clip-rule="nonzero"/></clipPath><clipPath id="b9f0bbd59d"><path d="M 73 44 L 78.625 44 L 78.625 48 L 73 48 Z M 73 44 " clip-rule="nonzero"/></clipPath><clipPath id="21bdd9073c"><path d="M 73 33 L 78.625 33 L 78.625 36 L 73 36 Z M 73 33 " clip-rule="nonzero"/></clipPath></defs><path fill="#4f83a5" d="M 44.703125 14.085938 C 30.28125 14.085938 18.546875 25.824219 18.546875 40.246094 C 18.546875 54.671875 30.28125 66.40625 44.703125 66.40625 C 59.128906 66.40625 70.863281 54.671875 70.863281 40.246094 C 70.863281 25.824219 59.128906 14.085938 44.703125 14.085938 Z M 44.703125 65.011719 C 31.050781 65.011719 19.9375 53.902344 19.9375 40.246094 C 19.9375 26.589844 31.050781 15.480469 44.703125 15.480469 C 58.359375 15.480469 69.46875 26.589844 69.46875 40.246094 C 69.46875 53.902344 58.359375 65.011719 44.703125 65.011719 Z M 44.703125 65.011719 " fill-opacity="1" fill-rule="nonzero"/><g clip-path="url(#5505c0b64e)"><path fill="#4f83a5" d="M 54.035156 65.863281 C 53.648438 65.863281 53.335938 66.175781 53.335938 66.558594 L 53.335938 71.292969 C 53.335938 72.269531 52.539062 73.070312 51.5625 73.070312 L 37.847656 73.070312 C 36.867188 73.070312 36.070312 72.269531 36.070312 71.292969 L 36.070312 66.558594 C 36.070312 66.175781 35.761719 65.863281 35.375 65.863281 C 34.992188 65.863281 34.679688 66.175781 34.679688 66.558594 L 34.679688 71.292969 C 34.679688 72.867188 35.835938 74.175781 37.34375 74.417969 L 37.34375 79.78125 C 37.34375 79.78125 37.34375 79.785156 37.34375 79.785156 L 37.34375 81.082031 C 37.34375 82.832031 38.765625 84.253906 40.515625 84.253906 L 48.894531 84.253906 C 50.644531 84.253906 52.066406 82.832031 52.066406 81.082031 L 52.066406 74.417969 C 53.574219 74.175781 54.730469 72.867188 54.730469 71.292969 L 54.730469 66.558594 C 54.730469 66.175781 54.417969 65.863281 54.035156 65.863281 Z M 50.671875 81.082031 C 50.671875 82.0625 49.875 82.859375 48.894531 82.859375 L 40.515625 82.859375 C 39.535156 82.859375 38.738281 82.0625 38.738281 81.082031 L 38.738281 80.480469 L 44.703125 80.480469 C 45.089844 80.480469 45.402344 80.167969 45.402344 79.78125 C 45.402344 79.398438 45.089844 79.085938 44.703125 79.085938 L 38.738281 79.085938 L 38.738281 78.050781 L 44.703125 78.050781 C 45.089844 78.050781 45.402344 77.742188 45.402344 77.355469 C 45.402344 76.96875 45.089844 76.660156 44.703125 76.660156 L 38.738281 76.660156 L 38.738281 74.460938 L 50.671875 74.460938 Z M 50.671875 81.082031 " fill-opacity="1" fill-rule="nonzero"/></g><g clip-path="url(#ab81469229)"><path fill="#4f83a5" d="M 44.703125 11.074219 C 45.089844 11.074219 45.402344 10.761719 45.402344 10.378906 L 45.402344 6.4375 C 45.402344 6.054688 45.089844 5.742188 44.703125 5.742188 C 44.320312 5.742188 44.007812 6.054688 44.007812 6.4375 L 44.007812 10.378906 C 44.007812 10.761719 44.320312 11.074219 44.703125 11.074219 Z M 44.703125 11.074219 " fill-opacity="1" fill-rule="nonzero"/></g><path fill="#4f83a5" d="M 33.773438 12.429688 C 33.875 12.710938 34.140625 12.886719 34.425781 12.886719 C 34.507812 12.886719 34.585938 12.875 34.664062 12.84375 C 35.027344 12.714844 35.214844 12.3125 35.082031 11.953125 L 33.734375 8.25 C 33.601562 7.886719 33.203125 7.703125 32.839844 7.832031 C 32.480469 7.964844 32.292969 8.367188 32.425781 8.726562 Z M 33.773438 12.429688 " fill-opacity="1" fill-rule="nonzero"/><path fill="#4f83a5" d="M 24.855469 17.855469 C 24.992188 18.019531 25.191406 18.105469 25.390625 18.105469 C 25.546875 18.105469 25.707031 18.050781 25.835938 17.941406 C 26.132812 17.695312 26.171875 17.253906 25.921875 16.960938 L 23.390625 13.941406 C 23.144531 13.648438 22.703125 13.609375 22.410156 13.855469 C 22.113281 14.105469 22.074219 14.542969 22.324219 14.839844 Z M 24.855469 17.855469 " fill-opacity="1" fill-rule="nonzero"/><path fill="#4f83a5" d="M 14.921875 24.039062 L 18.332031 26.007812 C 18.441406 26.070312 18.5625 26.101562 18.679688 26.101562 C 18.921875 26.101562 19.15625 25.976562 19.285156 25.75 C 19.476562 25.417969 19.363281 24.992188 19.03125 24.800781 L 15.617188 22.828125 C 15.285156 22.636719 14.859375 22.75 14.664062 23.085938 C 14.472656 23.417969 14.585938 23.84375 14.921875 24.039062 Z M 14.921875 24.039062 " fill-opacity="1" fill-rule="nonzero"/><g clip-path="url(#702c739ce0)"><path fill="#4f83a5" d="M 11.109375 35.210938 L 14.992188 35.894531 C 15.03125 35.902344 15.070312 35.90625 15.113281 35.90625 C 15.445312 35.90625 15.738281 35.667969 15.796875 35.332031 C 15.863281 34.953125 15.613281 34.589844 15.230469 34.523438 L 11.351562 33.839844 C 10.976562 33.773438 10.613281 34.027344 10.546875 34.40625 C 10.480469 34.785156 10.730469 35.144531 11.109375 35.210938 Z M 11.109375 35.210938 " fill-opacity="1" fill-rule="nonzero"/></g><g clip-path="url(#2668219dfb)"><path fill="#4f83a5" d="M 15.796875 45.523438 C 15.730469 45.144531 15.367188 44.894531 14.988281 44.960938 L 11.109375 45.644531 C 10.730469 45.710938 10.480469 46.070312 10.546875 46.449219 C 10.605469 46.789062 10.898438 47.027344 11.230469 47.027344 C 11.273438 47.027344 11.3125 47.023438 11.351562 47.015625 L 15.230469 46.332031 C 15.613281 46.265625 15.863281 45.902344 15.796875 45.523438 Z M 15.796875 45.523438 " fill-opacity="1" fill-rule="nonzero"/></g><path fill="#4f83a5" d="M 18.332031 54.847656 L 14.921875 56.820312 C 14.585938 57.011719 14.472656 57.4375 14.667969 57.769531 C 14.796875 57.996094 15.03125 58.121094 15.269531 58.121094 C 15.390625 58.121094 15.507812 58.089844 15.617188 58.027344 L 19.03125 56.054688 C 19.363281 55.863281 19.476562 55.4375 19.285156 55.105469 C 19.089844 54.769531 18.664062 54.65625 18.332031 54.847656 Z M 18.332031 54.847656 " fill-opacity="1" fill-rule="nonzero"/><path fill="#4f83a5" d="M 24.855469 63 L 22.324219 66.015625 C 22.074219 66.3125 22.113281 66.75 22.410156 67 C 22.539062 67.109375 22.699219 67.160156 22.855469 67.160156 C 23.054688 67.160156 23.253906 67.078125 23.390625 66.914062 L 25.921875 63.894531 C 26.171875 63.601562 26.132812 63.160156 25.835938 62.914062 C 25.542969 62.664062 25.101562 62.703125 24.855469 63 Z M 24.855469 63 " fill-opacity="1" fill-rule="nonzero"/><path fill="#4f83a5" d="M 64.554688 63 C 64.304688 62.703125 63.867188 62.664062 63.570312 62.914062 C 63.277344 63.160156 63.238281 63.601562 63.484375 63.894531 L 66.019531 66.914062 C 66.15625 67.078125 66.355469 67.160156 66.550781 67.160156 C 66.710938 67.160156 66.871094 67.109375 67 67 C 67.292969 66.75 67.332031 66.3125 67.085938 66.015625 Z M 64.554688 63 " fill-opacity="1" fill-rule="nonzero"/><path fill="#4f83a5" d="M 74.488281 56.820312 L 71.078125 54.847656 C 70.742188 54.65625 70.316406 54.769531 70.125 55.105469 C 69.933594 55.4375 70.046875 55.863281 70.378906 56.054688 L 73.792969 58.027344 C 73.902344 58.089844 74.019531 58.117188 74.140625 58.117188 C 74.378906 58.117188 74.613281 57.992188 74.742188 57.769531 C 74.933594 57.4375 74.820312 57.011719 74.488281 56.820312 Z M 74.488281 56.820312 " fill-opacity="1" fill-rule="nonzero"/><g clip-path="url(#b9f0bbd59d)"><path fill="#4f83a5" d="M 78.296875 45.644531 L 74.417969 44.960938 C 74.039062 44.894531 73.679688 45.144531 73.609375 45.523438 C 73.542969 45.902344 73.796875 46.265625 74.175781 46.332031 L 78.054688 47.015625 C 78.097656 47.023438 78.136719 47.027344 78.175781 47.027344 C 78.507812 47.027344 78.804688 46.789062 78.863281 46.449219 C 78.929688 46.070312 78.675781 45.710938 78.296875 45.644531 Z M 78.296875 45.644531 " fill-opacity="1" fill-rule="nonzero"/></g><g clip-path="url(#21bdd9073c)"><path fill="#4f83a5" d="M 73.609375 35.332031 C 73.671875 35.667969 73.964844 35.90625 74.296875 35.90625 C 74.335938 35.90625 74.378906 35.902344 74.417969 35.894531 L 78.296875 35.210938 C 78.675781 35.144531 78.929688 34.785156 78.863281 34.40625 C 78.796875 34.027344 78.433594 33.773438 78.054688 33.839844 L 74.175781 34.523438 C 73.796875 34.589844 73.542969 34.953125 73.609375 35.332031 Z M 73.609375 35.332031 " fill-opacity="1" fill-rule="nonzero"/></g><path fill="#4f83a5" d="M 70.726562 26.101562 C 70.847656 26.101562 70.964844 26.070312 71.078125 26.007812 L 74.488281 24.035156 C 74.820312 23.84375 74.933594 23.417969 74.742188 23.085938 C 74.550781 22.75 74.125 22.636719 73.789062 22.828125 L 70.378906 24.800781 C 70.046875 24.992188 69.933594 25.417969 70.125 25.75 C 70.253906 25.976562 70.488281 26.101562 70.726562 26.101562 Z M 70.726562 26.101562 " fill-opacity="1" fill-rule="nonzero"/><path fill="#4f83a5" d="M 64.019531 18.105469 C 64.21875 18.105469 64.414062 18.019531 64.554688 17.855469 L 67.085938 14.839844 C 67.332031 14.542969 67.292969 14.105469 67 13.855469 C 66.703125 13.609375 66.265625 13.648438 66.019531 13.941406 L 63.484375 16.960938 C 63.238281 17.253906 63.277344 17.695312 63.570312 17.941406 C 63.703125 18.050781 63.859375 18.105469 64.019531 18.105469 Z M 64.019531 18.105469 " fill-opacity="1" fill-rule="nonzero"/><path fill="#4f83a5" d="M 54.742188 12.84375 C 54.820312 12.875 54.902344 12.886719 54.980469 12.886719 C 55.265625 12.886719 55.535156 12.710938 55.636719 12.429688 L 56.984375 8.726562 C 57.117188 8.363281 56.929688 7.964844 56.566406 7.832031 C 56.203125 7.703125 55.804688 7.886719 55.675781 8.25 L 54.328125 11.953125 C 54.195312 12.3125 54.382812 12.714844 54.742188 12.84375 Z M 54.742188 12.84375 " fill-opacity="1" fill-rule="nonzero"/><path fill="#4f83a5" d="M 58.078125 30.398438 L 39.863281 48.617188 L 31.332031 40.085938 C 31.058594 39.8125 30.617188 39.8125 30.34375 40.085938 C 30.074219 40.355469 30.074219 40.796875 30.34375 41.070312 L 39.367188 50.09375 C 39.5 50.226562 39.675781 50.296875 39.863281 50.296875 C 40.046875 50.296875 40.222656 50.226562 40.355469 50.09375 L 59.0625 31.386719 C 59.335938 31.113281 59.335938 30.671875 59.0625 30.398438 C 58.792969 30.128906 58.351562 30.128906 58.078125 30.398438 Z M 58.078125 30.398438 " fill-opacity="1" fill-rule="nonzero"/><g fill="#4f83a5" fill-opacity="1"><g transform="translate(92.442382, 59.577024)"><g><path d="M 20.234375 -27.609375 C 20.578125 -27.609375 20.75 -27.441406 20.75 -27.109375 L 20.75 -25.640625 C 20.75 -25.296875 20.578125 -25.125 20.234375 -25.125 L 12.671875 -25.125 C 12.535156 -25.125 12.46875 -25.0625 12.46875 -24.9375 L 12.46875 -0.515625 C 12.46875 -0.171875 12.296875 0 11.953125 0 L 10.171875 0 C 9.835938 0 9.671875 -0.171875 9.671875 -0.515625 L 9.671875 -24.9375 C 9.671875 -25.0625 9.601562 -25.125 9.46875 -25.125 L 2.203125 -25.125 C 1.867188 -25.125 1.703125 -25.296875 1.703125 -25.640625 L 1.703125 -27.109375 C 1.703125 -27.441406 1.867188 -27.609375 2.203125 -27.609375 Z M 20.234375 -27.609375 "/></g></g></g><g fill="#4f83a5" fill-opacity="1"><g transform="translate(114.885751, 59.577024)"><g><path d="M 10.0625 -20.28125 C 12.425781 -20.28125 14.257812 -19.675781 15.5625 -18.46875 C 16.863281 -17.257812 17.515625 -15.65625 17.515625 -13.65625 L 17.515625 -0.515625 C 17.515625 -0.171875 17.34375 0 17 0 L 15.234375 0 C 14.890625 0 14.71875 -0.171875 14.71875 -0.515625 L 14.71875 -1.9375 C 14.71875 -2.007812 14.691406 -2.054688 14.640625 -2.078125 C 14.585938 -2.109375 14.535156 -2.085938 14.484375 -2.015625 C 13.765625 -1.253906 12.875 -0.675781 11.8125 -0.28125 C 10.75 0.113281 9.585938 0.3125 8.328125 0.3125 C 6.484375 0.3125 4.9375 -0.160156 3.6875 -1.109375 C 2.4375 -2.054688 1.8125 -3.5 1.8125 -5.4375 C 1.8125 -7.414062 2.523438 -8.972656 3.953125 -10.109375 C 5.390625 -11.253906 7.382812 -11.828125 9.9375 -11.828125 L 14.515625 -11.828125 C 14.648438 -11.828125 14.71875 -11.894531 14.71875 -12.03125 L 14.71875 -13.5 C 14.71875 -14.832031 14.34375 -15.882812 13.59375 -16.65625 C 12.84375 -17.4375 11.675781 -17.828125 10.09375 -17.828125 C 8.863281 -17.828125 7.851562 -17.585938 7.0625 -17.109375 C 6.269531 -16.640625 5.769531 -15.988281 5.5625 -15.15625 C 5.476562 -14.832031 5.28125 -14.695312 4.96875 -14.75 L 3.03125 -14.984375 C 2.695312 -15.046875 2.539062 -15.191406 2.5625 -15.421875 C 2.820312 -16.867188 3.628906 -18.039062 4.984375 -18.9375 C 6.335938 -19.832031 8.03125 -20.28125 10.0625 -20.28125 Z M 8.953125 -2.09375 C 10.503906 -2.09375 11.851562 -2.476562 13 -3.25 C 14.144531 -4.03125 14.71875 -5.078125 14.71875 -6.390625 L 14.71875 -9.421875 C 14.71875 -9.554688 14.648438 -9.625 14.515625 -9.625 L 10.375 -9.625 C 8.632812 -9.625 7.238281 -9.269531 6.1875 -8.5625 C 5.132812 -7.851562 4.609375 -6.867188 4.609375 -5.609375 C 4.609375 -4.441406 5.015625 -3.5625 5.828125 -2.96875 C 6.648438 -2.382812 7.691406 -2.09375 8.953125 -2.09375 Z M 8.953125 -2.09375 "/></g></g></g><g fill="#4f83a5" fill-opacity="1"><g transform="translate(135.041398, 59.577024)"><g><path d="M 9.703125 0.203125 C 8.234375 0.203125 6.925781 -0.03125 5.78125 -0.5 C 4.632812 -0.976562 3.75 -1.613281 3.125 -2.40625 C 2.507812 -3.195312 2.203125 -4.078125 2.203125 -5.046875 L 2.203125 -5.40625 C 2.203125 -5.75 2.375 -5.921875 2.71875 -5.921875 L 4.421875 -5.921875 C 4.578125 -5.921875 4.703125 -5.882812 4.796875 -5.8125 C 4.890625 -5.75 4.9375 -5.664062 4.9375 -5.5625 L 4.9375 -5.203125 C 4.9375 -4.335938 5.378906 -3.582031 6.265625 -2.9375 C 7.160156 -2.289062 8.296875 -1.96875 9.671875 -1.96875 C 11.035156 -1.96875 12.140625 -2.273438 12.984375 -2.890625 C 13.828125 -3.515625 14.25 -4.300781 14.25 -5.25 C 14.25 -5.90625 14.035156 -6.441406 13.609375 -6.859375 C 13.191406 -7.285156 12.679688 -7.613281 12.078125 -7.84375 C 11.472656 -8.082031 10.5625 -8.390625 9.34375 -8.765625 C 7.875 -9.179688 6.664062 -9.597656 5.71875 -10.015625 C 4.769531 -10.441406 3.96875 -11.03125 3.3125 -11.78125 C 2.65625 -12.53125 2.328125 -13.484375 2.328125 -14.640625 C 2.328125 -16.316406 2.988281 -17.65625 4.3125 -18.65625 C 5.644531 -19.65625 7.390625 -20.15625 9.546875 -20.15625 C 10.992188 -20.15625 12.273438 -19.914062 13.390625 -19.4375 C 14.515625 -18.96875 15.378906 -18.316406 15.984375 -17.484375 C 16.585938 -16.660156 16.890625 -15.738281 16.890625 -14.71875 C 16.890625 -14.375 16.71875 -14.203125 16.375 -14.203125 L 14.75 -14.203125 C 14.414062 -14.203125 14.25 -14.296875 14.25 -14.484375 L 14.25 -14.71875 C 14.25 -15.613281 13.816406 -16.363281 12.953125 -16.96875 C 12.097656 -17.570312 10.953125 -17.875 9.515625 -17.875 C 8.171875 -17.875 7.085938 -17.601562 6.265625 -17.0625 C 5.453125 -16.519531 5.046875 -15.773438 5.046875 -14.828125 C 5.046875 -13.941406 5.429688 -13.257812 6.203125 -12.78125 C 6.984375 -12.3125 8.203125 -11.835938 9.859375 -11.359375 C 11.390625 -10.941406 12.625 -10.535156 13.5625 -10.140625 C 14.507812 -9.742188 15.328125 -9.164062 16.015625 -8.40625 C 16.703125 -7.644531 17.046875 -6.65625 17.046875 -5.4375 C 17.046875 -3.726562 16.378906 -2.359375 15.046875 -1.328125 C 13.722656 -0.304688 11.941406 0.203125 9.703125 0.203125 Z M 9.703125 0.203125 "/></g></g></g><g fill="#4f83a5" fill-opacity="1"><g transform="translate(154.053178, 59.577024)"><g><path d="M 3.671875 0 C 3.328125 0 3.15625 -0.171875 3.15625 -0.515625 L 3.15625 -27.109375 C 3.15625 -27.441406 3.328125 -27.609375 3.671875 -27.609375 L 5.4375 -27.609375 C 5.78125 -27.609375 5.953125 -27.441406 5.953125 -27.109375 L 5.953125 -11.171875 C 5.953125 -11.085938 5.976562 -11.023438 6.03125 -10.984375 C 6.082031 -10.941406 6.132812 -10.960938 6.1875 -11.046875 L 14.4375 -19.6875 C 14.59375 -19.875 14.804688 -19.96875 15.078125 -19.96875 L 17.15625 -19.96875 C 17.445312 -19.96875 17.59375 -19.859375 17.59375 -19.640625 C 17.59375 -19.566406 17.554688 -19.460938 17.484375 -19.328125 L 12.578125 -13.921875 C 12.503906 -13.847656 12.492188 -13.757812 12.546875 -13.65625 L 18.46875 -0.59375 C 18.519531 -0.488281 18.546875 -0.410156 18.546875 -0.359375 C 18.546875 -0.117188 18.382812 0 18.0625 0 L 16.21875 0 C 15.957031 0 15.757812 -0.128906 15.625 -0.390625 L 10.609375 -11.796875 C 10.585938 -11.847656 10.550781 -11.878906 10.5 -11.890625 C 10.445312 -11.910156 10.394531 -11.890625 10.34375 -11.828125 L 6.03125 -7.34375 C 5.976562 -7.238281 5.953125 -7.144531 5.953125 -7.0625 L 5.953125 -0.515625 C 5.953125 -0.171875 5.78125 0 5.4375 0 Z M 3.671875 0 "/></g></g></g><g fill="#4f83a5" fill-opacity="1"><g transform="translate(173.814397, 59.577024)"><g><path d="M 23.359375 -20.234375 C 25.328125 -20.234375 26.882812 -19.640625 28.03125 -18.453125 C 29.175781 -17.273438 29.75 -15.660156 29.75 -13.609375 L 29.75 -0.515625 C 29.75 -0.171875 29.578125 0 29.234375 0 L 27.5 0 C 27.15625 0 26.984375 -0.171875 26.984375 -0.515625 L 26.984375 -13.0625 C 26.984375 -14.507812 26.566406 -15.660156 25.734375 -16.515625 C 24.910156 -17.367188 23.828125 -17.796875 22.484375 -17.796875 C 21.085938 -17.796875 19.960938 -17.375 19.109375 -16.53125 C 18.253906 -15.6875 17.828125 -14.554688 17.828125 -13.140625 L 17.828125 -0.515625 C 17.828125 -0.171875 17.65625 0 17.3125 0 L 15.546875 0 C 15.203125 0 15.03125 -0.171875 15.03125 -0.515625 L 15.03125 -13.0625 C 15.03125 -14.507812 14.617188 -15.660156 13.796875 -16.515625 C 12.984375 -17.367188 11.894531 -17.796875 10.53125 -17.796875 C 9.132812 -17.796875 8.019531 -17.375 7.1875 -16.53125 C 6.363281 -15.6875 5.953125 -14.554688 5.953125 -13.140625 L 5.953125 -0.515625 C 5.953125 -0.171875 5.78125 0 5.4375 0 L 3.671875 0 C 3.328125 0 3.15625 -0.171875 3.15625 -0.515625 L 3.15625 -19.453125 C 3.15625 -19.796875 3.328125 -19.96875 3.671875 -19.96875 L 5.4375 -19.96875 C 5.78125 -19.96875 5.953125 -19.796875 5.953125 -19.453125 L 5.953125 -18.0625 C 5.953125 -17.988281 5.976562 -17.9375 6.03125 -17.90625 C 6.082031 -17.882812 6.132812 -17.910156 6.1875 -17.984375 C 6.769531 -18.753906 7.507812 -19.320312 8.40625 -19.6875 C 9.300781 -20.050781 10.300781 -20.234375 11.40625 -20.234375 C 12.738281 -20.234375 13.890625 -19.957031 14.859375 -19.40625 C 15.835938 -18.851562 16.578125 -18.078125 17.078125 -17.078125 C 17.160156 -16.921875 17.238281 -16.910156 17.3125 -17.046875 C 17.894531 -18.117188 18.710938 -18.914062 19.765625 -19.4375 C 20.816406 -19.96875 22.015625 -20.234375 23.359375 -20.234375 Z M 23.359375 -20.234375 "/></g></g></g><g fill="#4f83a5" fill-opacity="1"><g transform="translate(206.4342, 59.577024)"><g><path d="M 10.0625 -20.28125 C 12.425781 -20.28125 14.257812 -19.675781 15.5625 -18.46875 C 16.863281 -17.257812 17.515625 -15.65625 17.515625 -13.65625 L 17.515625 -0.515625 C 17.515625 -0.171875 17.34375 0 17 0 L 15.234375 0 C 14.890625 0 14.71875 -0.171875 14.71875 -0.515625 L 14.71875 -1.9375 C 14.71875 -2.007812 14.691406 -2.054688 14.640625 -2.078125 C 14.585938 -2.109375 14.535156 -2.085938 14.484375 -2.015625 C 13.765625 -1.253906 12.875 -0.675781 11.8125 -0.28125 C 10.75 0.113281 9.585938 0.3125 8.328125 0.3125 C 6.484375 0.3125 4.9375 -0.160156 3.6875 -1.109375 C 2.4375 -2.054688 1.8125 -3.5 1.8125 -5.4375 C 1.8125 -7.414062 2.523438 -8.972656 3.953125 -10.109375 C 5.390625 -11.253906 7.382812 -11.828125 9.9375 -11.828125 L 14.515625 -11.828125 C 14.648438 -11.828125 14.71875 -11.894531 14.71875 -12.03125 L 14.71875 -13.5 C 14.71875 -14.832031 14.34375 -15.882812 13.59375 -16.65625 C 12.84375 -17.4375 11.675781 -17.828125 10.09375 -17.828125 C 8.863281 -17.828125 7.851562 -17.585938 7.0625 -17.109375 C 6.269531 -16.640625 5.769531 -15.988281 5.5625 -15.15625 C 5.476562 -14.832031 5.28125 -14.695312 4.96875 -14.75 L 3.03125 -14.984375 C 2.695312 -15.046875 2.539062 -15.191406 2.5625 -15.421875 C 2.820312 -16.867188 3.628906 -18.039062 4.984375 -18.9375 C 6.335938 -19.832031 8.03125 -20.28125 10.0625 -20.28125 Z M 8.953125 -2.09375 C 10.503906 -2.09375 11.851562 -2.476562 13 -3.25 C 14.144531 -4.03125 14.71875 -5.078125 14.71875 -6.390625 L 14.71875 -9.421875 C 14.71875 -9.554688 14.648438 -9.625 14.515625 -9.625 L 10.375 -9.625 C 8.632812 -9.625 7.238281 -9.269531 6.1875 -8.5625 C 5.132812 -7.851562 4.609375 -6.867188 4.609375 -5.609375 C 4.609375 -4.441406 5.015625 -3.5625 5.828125 -2.96875 C 6.648438 -2.382812 7.691406 -2.09375 8.953125 -2.09375 Z M 8.953125 -2.09375 "/></g></g></g><g fill="#4f83a5" fill-opacity="1"><g transform="translate(226.589847, 59.577024)"><g><path d="M 9.703125 0.203125 C 8.234375 0.203125 6.925781 -0.03125 5.78125 -0.5 C 4.632812 -0.976562 3.75 -1.613281 3.125 -2.40625 C 2.507812 -3.195312 2.203125 -4.078125 2.203125 -5.046875 L 2.203125 -5.40625 C 2.203125 -5.75 2.375 -5.921875 2.71875 -5.921875 L 4.421875 -5.921875 C 4.578125 -5.921875 4.703125 -5.882812 4.796875 -5.8125 C 4.890625 -5.75 4.9375 -5.664062 4.9375 -5.5625 L 4.9375 -5.203125 C 4.9375 -4.335938 5.378906 -3.582031 6.265625 -2.9375 C 7.160156 -2.289062 8.296875 -1.96875 9.671875 -1.96875 C 11.035156 -1.96875 12.140625 -2.273438 12.984375 -2.890625 C 13.828125 -3.515625 14.25 -4.300781 14.25 -5.25 C 14.25 -5.90625 14.035156 -6.441406 13.609375 -6.859375 C 13.191406 -7.285156 12.679688 -7.613281 12.078125 -7.84375 C 11.472656 -8.082031 10.5625 -8.390625 9.34375 -8.765625 C 7.875 -9.179688 6.664062 -9.597656 5.71875 -10.015625 C 4.769531 -10.441406 3.96875 -11.03125 3.3125 -11.78125 C 2.65625 -12.53125 2.328125 -13.484375 2.328125 -14.640625 C 2.328125 -16.316406 2.988281 -17.65625 4.3125 -18.65625 C 5.644531 -19.65625 7.390625 -20.15625 9.546875 -20.15625 C 10.992188 -20.15625 12.273438 -19.914062 13.390625 -19.4375 C 14.515625 -18.96875 15.378906 -18.316406 15.984375 -17.484375 C 16.585938 -16.660156 16.890625 -15.738281 16.890625 -14.71875 C 16.890625 -14.375 16.71875 -14.203125 16.375 -14.203125 L 14.75 -14.203125 C 14.414062 -14.203125 14.25 -14.296875 14.25 -14.484375 L 14.25 -14.71875 C 14.25 -15.613281 13.816406 -16.363281 12.953125 -16.96875 C 12.097656 -17.570312 10.953125 -17.875 9.515625 -17.875 C 8.171875 -17.875 7.085938 -17.601562 6.265625 -17.0625 C 5.453125 -16.519531 5.046875 -15.773438 5.046875 -14.828125 C 5.046875 -13.941406 5.429688 -13.257812 6.203125 -12.78125 C 6.984375 -12.3125 8.203125 -11.835938 9.859375 -11.359375 C 11.390625 -10.941406 12.625 -10.535156 13.5625 -10.140625 C 14.507812 -9.742188 15.328125 -9.164062 16.015625 -8.40625 C 16.703125 -7.644531 17.046875 -6.65625 17.046875 -5.4375 C 17.046875 -3.726562 16.378906 -2.359375 15.046875 -1.328125 C 13.722656 -0.304688 11.941406 0.203125 9.703125 0.203125 Z M 9.703125 0.203125 "/></g></g></g><g fill="#4f83a5" fill-opacity="1"><g transform="translate(245.601627, 59.577024)"><g><path d="M 12.109375 -18.140625 C 12.109375 -17.804688 11.9375 -17.640625 11.59375 -17.640625 L 7.296875 -17.640625 C 7.160156 -17.640625 7.09375 -17.570312 7.09375 -17.4375 L 7.09375 -5.921875 C 7.09375 -4.660156 7.375 -3.769531 7.9375 -3.25 C 8.507812 -2.738281 9.398438 -2.484375 10.609375 -2.484375 L 11.484375 -2.484375 C 11.828125 -2.484375 12 -2.3125 12 -1.96875 L 12 -0.59375 C 12 -0.25 11.828125 -0.0664062 11.484375 -0.046875 L 10.140625 -0.046875 C 8.242188 -0.046875 6.804688 -0.398438 5.828125 -1.109375 C 4.859375 -1.816406 4.375 -3.128906 4.375 -5.046875 L 4.375 -17.4375 C 4.375 -17.570312 4.3125 -17.640625 4.1875 -17.640625 L 1.9375 -17.640625 C 1.59375 -17.640625 1.421875 -17.804688 1.421875 -18.140625 L 1.421875 -19.453125 C 1.421875 -19.796875 1.59375 -19.96875 1.9375 -19.96875 L 4.1875 -19.96875 C 4.3125 -19.96875 4.375 -20.03125 4.375 -20.15625 L 4.375 -24.578125 C 4.375 -24.921875 4.546875 -25.09375 4.890625 -25.09375 L 6.59375 -25.09375 C 6.925781 -25.09375 7.09375 -24.921875 7.09375 -24.578125 L 7.09375 -20.15625 C 7.09375 -20.03125 7.160156 -19.96875 7.296875 -19.96875 L 11.59375 -19.96875 C 11.9375 -19.96875 12.109375 -19.796875 12.109375 -19.453125 Z M 12.109375 -18.140625 "/></g></g></g><g fill="#4f83a5" fill-opacity="1"><g transform="translate(259.959076, 59.577024)"><g><path d="M 10.921875 -2.09375 C 12.109375 -2.113281 13.128906 -2.378906 13.984375 -2.890625 C 14.835938 -3.410156 15.503906 -4.128906 15.984375 -5.046875 C 16.035156 -5.179688 16.125 -5.273438 16.25 -5.328125 C 16.382812 -5.378906 16.519531 -5.363281 16.65625 -5.28125 L 17.796875 -4.65625 C 18.109375 -4.46875 18.1875 -4.242188 18.03125 -3.984375 C 17.394531 -2.671875 16.445312 -1.625 15.1875 -0.84375 C 13.925781 -0.0703125 12.425781 0.3125 10.6875 0.3125 C 8.851562 0.3125 7.300781 -0.117188 6.03125 -0.984375 C 4.769531 -1.847656 3.863281 -3.054688 3.3125 -4.609375 C 2.8125 -5.929688 2.5625 -7.75 2.5625 -10.0625 C 2.5625 -11.1875 2.582031 -12.082031 2.625 -12.75 C 2.664062 -13.425781 2.765625 -14.054688 2.921875 -14.640625 C 3.367188 -16.347656 4.269531 -17.710938 5.625 -18.734375 C 6.976562 -19.765625 8.613281 -20.28125 10.53125 -20.28125 C 12.820312 -20.28125 14.617188 -19.6875 15.921875 -18.5 C 17.222656 -17.320312 18.054688 -15.65625 18.421875 -13.5 C 18.578125 -12.65625 18.65625 -11.335938 18.65625 -9.546875 C 18.65625 -9.203125 18.484375 -9.03125 18.140625 -9.03125 L 5.515625 -9.03125 C 5.390625 -9.03125 5.328125 -8.96875 5.328125 -8.84375 C 5.328125 -7.519531 5.40625 -6.554688 5.5625 -5.953125 C 5.851562 -4.773438 6.460938 -3.835938 7.390625 -3.140625 C 8.328125 -2.441406 9.503906 -2.09375 10.921875 -2.09375 Z M 10.53125 -17.828125 C 9.21875 -17.828125 8.140625 -17.492188 7.296875 -16.828125 C 6.453125 -16.160156 5.898438 -15.257812 5.640625 -14.125 C 5.484375 -13.59375 5.378906 -12.695312 5.328125 -11.4375 C 5.328125 -11.3125 5.390625 -11.25 5.515625 -11.25 L 15.65625 -11.25 C 15.789062 -11.25 15.859375 -11.3125 15.859375 -11.4375 C 15.804688 -12.59375 15.726562 -13.4375 15.625 -13.96875 C 15.332031 -15.144531 14.742188 -16.082031 13.859375 -16.78125 C 12.984375 -17.476562 11.875 -17.828125 10.53125 -17.828125 Z M 10.53125 -17.828125 "/></g></g></g><g fill="#4f83a5" fill-opacity="1"><g transform="translate(281.021925, 59.577024)"><g><path d="M 11.203125 -20.15625 C 12.066406 -20.15625 12.789062 -20 13.375 -19.6875 C 13.632812 -19.582031 13.726562 -19.375 13.65625 -19.0625 L 13.25 -17.3125 C 13.175781 -17 12.96875 -16.894531 12.625 -17 C 12.125 -17.15625 11.476562 -17.222656 10.6875 -17.203125 C 9.320312 -17.148438 8.191406 -16.644531 7.296875 -15.6875 C 6.398438 -14.726562 5.953125 -13.507812 5.953125 -12.03125 L 5.953125 -0.515625 C 5.953125 -0.171875 5.78125 0 5.4375 0 L 3.671875 0 C 3.328125 0 3.15625 -0.171875 3.15625 -0.515625 L 3.15625 -19.453125 C 3.15625 -19.796875 3.328125 -19.96875 3.671875 -19.96875 L 5.4375 -19.96875 C 5.78125 -19.96875 5.953125 -19.796875 5.953125 -19.453125 L 5.953125 -17.234375 C 5.953125 -17.128906 5.972656 -17.070312 6.015625 -17.0625 C 6.054688 -17.050781 6.101562 -17.082031 6.15625 -17.15625 C 6.707031 -18.101562 7.410156 -18.835938 8.265625 -19.359375 C 9.117188 -19.890625 10.097656 -20.15625 11.203125 -20.15625 Z M 11.203125 -20.15625 "/></g></g></g></svg>