<svg xmlns="http://www.w3.org/2000/svg" xmlns:xlink="http://www.w3.org/1999/xlink" width="500" zoomAndPan="magnify" viewBox="0 0 375 374.999991" height="500" preserveAspectRatio="xMidYMid meet" version="1.0"><defs><g/><clipPath id="f9e5a17131"><path d="M 158 211 L 217 211 L 217 265.085938 L 158 265.085938 Z M 158 211 " clip-rule="nonzero"/></clipPath><clipPath id="13ec81e513"><path d="M 185 34.835938 L 190 34.835938 L 190 51 L 185 51 Z M 185 34.835938 " clip-rule="nonzero"/></clipPath><clipPath id="b4073842d6"><path d="M 87.105469 117 L 103 117 L 103 124 L 87.105469 124 Z M 87.105469 117 " clip-rule="nonzero"/></clipPath><clipPath id="e5b36a5603"><path d="M 87.105469 149 L 103 149 L 103 157 L 87.105469 157 Z M 87.105469 149 " clip-rule="nonzero"/></clipPath></defs><path fill="#4f83a5" d="M 187.472656 59.402344 C 145.164062 59.402344 110.746094 93.824219 110.746094 136.132812 C 110.746094 178.441406 145.164062 212.863281 187.472656 212.863281 C 229.78125 212.863281 264.203125 178.441406 264.203125 136.132812 C 264.203125 93.824219 229.78125 59.402344 187.472656 59.402344 Z M 187.472656 208.773438 C 147.417969 208.773438 114.832031 176.1875 114.832031 136.132812 C 114.832031 96.078125 147.417969 63.492188 187.472656 63.492188 C 227.527344 63.492188 260.113281 96.078125 260.113281 136.132812 C 260.113281 176.1875 227.527344 208.773438 187.472656 208.773438 Z M 187.472656 208.773438 " fill-opacity="1" fill-rule="nonzero"/><g clip-path="url(#f9e5a17131)"><path fill="#4f83a5" d="M 214.839844 211.265625 C 213.710938 211.265625 212.792969 212.179688 212.792969 213.308594 L 212.792969 227.191406 C 212.792969 230.066406 210.457031 232.402344 207.585938 232.402344 L 167.363281 232.402344 C 164.492188 232.402344 162.152344 230.066406 162.152344 227.191406 L 162.152344 213.308594 C 162.152344 212.179688 161.238281 211.265625 160.109375 211.265625 C 158.980469 211.265625 158.066406 212.179688 158.066406 213.308594 L 158.066406 227.191406 C 158.066406 231.8125 161.457031 235.648438 165.882812 236.363281 L 165.882812 244.972656 C 165.882812 244.972656 165.882812 244.976562 165.882812 244.976562 C 165.882812 244.980469 165.882812 244.980469 165.882812 244.984375 L 165.882812 252.089844 C 165.882812 252.09375 165.882812 252.09375 165.882812 252.09375 C 165.882812 252.097656 165.882812 252.097656 165.882812 252.101562 L 165.882812 255.910156 C 165.882812 261.039062 170.054688 265.210938 175.183594 265.210938 L 199.765625 265.210938 C 204.894531 265.210938 209.066406 261.039062 209.066406 255.910156 L 209.066406 236.363281 C 213.488281 235.648438 216.882812 231.8125 216.882812 227.191406 L 216.882812 213.308594 C 216.882812 212.179688 215.96875 211.265625 214.839844 211.265625 Z M 204.976562 255.910156 C 204.976562 258.785156 202.640625 261.121094 199.765625 261.121094 L 175.183594 261.121094 C 172.308594 261.121094 169.972656 258.785156 169.972656 255.910156 L 169.972656 254.140625 L 187.472656 254.140625 C 188.601562 254.140625 189.519531 253.222656 189.519531 252.09375 C 189.519531 250.964844 188.601562 250.050781 187.472656 250.050781 L 169.972656 250.050781 L 169.972656 247.019531 L 187.472656 247.019531 C 188.601562 247.019531 189.519531 246.105469 189.519531 244.976562 C 189.519531 243.847656 188.601562 242.933594 187.472656 242.933594 L 169.972656 242.933594 L 169.972656 236.492188 L 204.976562 236.492188 Z M 204.976562 255.910156 " fill-opacity="1" fill-rule="nonzero"/></g><g clip-path="url(#13ec81e513)"><path fill="#4f83a5" d="M 187.472656 50.566406 C 188.601562 50.566406 189.519531 49.652344 189.519531 48.523438 L 189.519531 36.96875 C 189.519531 35.839844 188.601562 34.925781 187.472656 34.925781 C 186.34375 34.925781 185.429688 35.839844 185.429688 36.96875 L 185.429688 48.523438 C 185.429688 49.652344 186.34375 50.566406 187.472656 50.566406 Z M 187.472656 50.566406 " fill-opacity="1" fill-rule="nonzero"/></g><path fill="#4f83a5" d="M 155.40625 54.535156 C 155.710938 55.367188 156.492188 55.882812 157.328125 55.882812 C 157.558594 55.882812 157.796875 55.84375 158.027344 55.757812 C 159.089844 55.371094 159.636719 54.199219 159.25 53.136719 L 155.296875 42.28125 C 154.910156 41.21875 153.738281 40.675781 152.675781 41.058594 C 151.617188 41.445312 151.070312 42.617188 151.453125 43.679688 Z M 155.40625 54.535156 " fill-opacity="1" fill-rule="nonzero"/><path fill="#4f83a5" d="M 129.253906 70.457031 C 129.65625 70.9375 130.234375 71.1875 130.820312 71.1875 C 131.285156 71.1875 131.75 71.03125 132.132812 70.707031 C 132.996094 69.984375 133.109375 68.695312 132.382812 67.828125 L 124.957031 58.976562 C 124.230469 58.113281 122.941406 58 122.078125 58.726562 C 121.210938 59.453125 121.097656 60.742188 121.824219 61.605469 Z M 129.253906 70.457031 " fill-opacity="1" fill-rule="nonzero"/><path fill="#4f83a5" d="M 100.113281 88.585938 L 110.121094 94.363281 C 110.441406 94.546875 110.792969 94.636719 111.140625 94.636719 C 111.847656 94.636719 112.535156 94.269531 112.914062 93.613281 C 113.476562 92.636719 113.140625 91.386719 112.164062 90.824219 L 102.15625 85.046875 C 101.179688 84.480469 99.929688 84.816406 99.367188 85.792969 C 98.800781 86.773438 99.136719 88.023438 100.113281 88.585938 Z M 100.113281 88.585938 " fill-opacity="1" fill-rule="nonzero"/><g clip-path="url(#b4073842d6)"><path fill="#4f83a5" d="M 88.9375 121.363281 L 100.316406 123.371094 C 100.4375 123.390625 100.558594 123.402344 100.675781 123.402344 C 101.648438 123.402344 102.511719 122.703125 102.6875 121.710938 C 102.882812 120.601562 102.140625 119.539062 101.027344 119.34375 L 89.648438 117.339844 C 88.539062 117.144531 87.476562 117.886719 87.28125 118.996094 C 87.085938 120.109375 87.828125 121.167969 88.9375 121.363281 Z M 88.9375 121.363281 " fill-opacity="1" fill-rule="nonzero"/></g><g clip-path="url(#e5b36a5603)"><path fill="#4f83a5" d="M 102.683594 151.613281 C 102.488281 150.5 101.425781 149.757812 100.316406 149.953125 L 88.9375 151.960938 C 87.828125 152.15625 87.085938 153.21875 87.28125 154.332031 C 87.457031 155.320312 88.320312 156.019531 89.292969 156.019531 C 89.410156 156.019531 89.53125 156.007812 89.648438 155.988281 L 101.027344 153.980469 C 102.140625 153.785156 102.882812 152.726562 102.683594 151.613281 Z M 102.683594 151.613281 " fill-opacity="1" fill-rule="nonzero"/></g><path fill="#4f83a5" d="M 110.121094 178.960938 L 100.113281 184.742188 C 99.136719 185.304688 98.800781 186.554688 99.367188 187.535156 C 99.746094 188.1875 100.433594 188.554688 101.140625 188.554688 C 101.484375 188.554688 101.835938 188.46875 102.160156 188.28125 L 112.164062 182.503906 C 113.140625 181.9375 113.476562 180.6875 112.914062 179.710938 C 112.347656 178.734375 111.097656 178.398438 110.121094 178.960938 Z M 110.121094 178.960938 " fill-opacity="1" fill-rule="nonzero"/><path fill="#4f83a5" d="M 129.253906 202.867188 L 121.824219 211.71875 C 121.101562 212.582031 121.210938 213.871094 122.078125 214.597656 C 122.460938 214.917969 122.925781 215.078125 123.390625 215.078125 C 123.972656 215.078125 124.554688 214.828125 124.957031 214.347656 L 132.382812 205.496094 C 133.109375 204.632812 132.996094 203.34375 132.132812 202.617188 C 131.265625 201.890625 129.976562 202.003906 129.253906 202.867188 Z M 129.253906 202.867188 " fill-opacity="1" fill-rule="nonzero"/><path fill="#4f83a5" d="M 245.691406 202.867188 C 244.96875 202.003906 243.679688 201.890625 242.8125 202.617188 C 241.949219 203.34375 241.835938 204.632812 242.5625 205.496094 L 249.992188 214.347656 C 250.394531 214.828125 250.972656 215.078125 251.558594 215.078125 C 252.019531 215.078125 252.488281 214.917969 252.871094 214.597656 C 253.734375 213.871094 253.847656 212.582031 253.121094 211.71875 Z M 245.691406 202.867188 " fill-opacity="1" fill-rule="nonzero"/><path fill="#4f83a5" d="M 274.832031 184.738281 L 264.824219 178.960938 C 263.847656 178.398438 262.597656 178.734375 262.035156 179.710938 C 261.46875 180.6875 261.804688 181.9375 262.78125 182.503906 L 272.789062 188.28125 C 273.109375 188.464844 273.460938 188.554688 273.808594 188.554688 C 274.515625 188.554688 275.203125 188.1875 275.582031 187.53125 C 276.144531 186.554688 275.8125 185.304688 274.832031 184.738281 Z M 274.832031 184.738281 " fill-opacity="1" fill-rule="nonzero"/><path fill="#4f83a5" d="M 286.007812 151.960938 L 274.628906 149.957031 C 273.519531 149.761719 272.457031 150.503906 272.261719 151.613281 C 272.066406 152.726562 272.808594 153.785156 273.917969 153.980469 L 285.296875 155.988281 C 285.417969 156.007812 285.539062 156.019531 285.65625 156.019531 C 286.628906 156.019531 287.492188 155.320312 287.664062 154.328125 C 287.863281 153.21875 287.121094 152.15625 286.007812 151.960938 Z M 286.007812 151.960938 " fill-opacity="1" fill-rule="nonzero"/><path fill="#4f83a5" d="M 272.261719 121.714844 C 272.4375 122.703125 273.296875 123.402344 274.273438 123.402344 C 274.390625 123.402344 274.507812 123.390625 274.628906 123.371094 L 286.007812 121.363281 C 287.121094 121.167969 287.863281 120.105469 287.664062 118.996094 C 287.46875 117.882812 286.410156 117.140625 285.296875 117.335938 L 273.917969 119.34375 C 272.808594 119.542969 272.066406 120.601562 272.261719 121.714844 Z M 272.261719 121.714844 " fill-opacity="1" fill-rule="nonzero"/><path fill="#4f83a5" d="M 263.804688 94.636719 C 264.152344 94.636719 264.503906 94.550781 264.824219 94.363281 L 274.832031 88.585938 C 275.808594 88.019531 276.144531 86.769531 275.582031 85.792969 C 275.015625 84.816406 273.765625 84.480469 272.789062 85.042969 L 262.78125 90.824219 C 261.804688 91.386719 261.46875 92.636719 262.035156 93.617188 C 262.410156 94.269531 263.097656 94.636719 263.804688 94.636719 Z M 263.804688 94.636719 " fill-opacity="1" fill-rule="nonzero"/><path fill="#4f83a5" d="M 244.125 71.1875 C 244.710938 71.1875 245.289062 70.941406 245.691406 70.457031 L 253.121094 61.605469 C 253.847656 60.742188 253.734375 59.449219 252.867188 58.726562 C 252.003906 58 250.714844 58.113281 249.988281 58.976562 L 242.5625 67.832031 C 241.835938 68.695312 241.949219 69.984375 242.8125 70.710938 C 243.195312 71.03125 243.664062 71.1875 244.125 71.1875 Z M 244.125 71.1875 " fill-opacity="1" fill-rule="nonzero"/><path fill="#4f83a5" d="M 216.917969 55.761719 C 217.148438 55.84375 217.386719 55.882812 217.617188 55.882812 C 218.453125 55.882812 219.238281 55.367188 219.539062 54.539062 L 223.492188 43.679688 C 223.875 42.617188 223.328125 41.445312 222.269531 41.058594 C 221.207031 40.671875 220.035156 41.21875 219.648438 42.28125 L 215.695312 53.140625 C 215.3125 54.199219 215.859375 55.375 216.917969 55.761719 Z M 216.917969 55.761719 " fill-opacity="1" fill-rule="nonzero"/><path fill="#4f83a5" d="M 226.699219 107.246094 L 173.269531 160.679688 L 148.246094 135.65625 C 147.449219 134.859375 146.15625 134.859375 145.355469 135.65625 C 144.558594 136.457031 144.558594 137.75 145.355469 138.550781 L 171.824219 165.015625 C 172.207031 165.398438 172.726562 165.617188 173.269531 165.617188 C 173.8125 165.617188 174.332031 165.398438 174.714844 165.015625 L 229.59375 110.140625 C 230.390625 109.339844 230.390625 108.046875 229.59375 107.25 C 228.792969 106.449219 227.5 106.449219 226.699219 107.246094 Z M 226.699219 107.246094 " fill-opacity="1" fill-rule="nonzero"/><g fill="#4f83a5" fill-opacity="1"><g transform="translate(26.867263, 326.723242)"><g><path d="M 32.03125 -43.71875 C 32.570312 -43.71875 32.84375 -43.445312 32.84375 -42.90625 L 32.84375 -40.59375 C 32.84375 -40.050781 32.570312 -39.78125 32.03125 -39.78125 L 20.046875 -39.78125 C 19.835938 -39.78125 19.734375 -39.675781 19.734375 -39.46875 L 19.734375 -0.8125 C 19.734375 -0.269531 19.460938 0 18.921875 0 L 16.109375 0 C 15.566406 0 15.296875 -0.269531 15.296875 -0.8125 L 15.296875 -39.46875 C 15.296875 -39.675781 15.191406 -39.78125 14.984375 -39.78125 L 3.5 -39.78125 C 2.957031 -39.78125 2.6875 -40.050781 2.6875 -40.59375 L 2.6875 -42.90625 C 2.6875 -43.445312 2.957031 -43.71875 3.5 -43.71875 Z M 32.03125 -43.71875 "/></g></g></g><g fill="#4f83a5" fill-opacity="1"><g transform="translate(62.395791, 326.723242)"><g><path d="M 15.921875 -32.09375 C 19.671875 -32.09375 22.578125 -31.132812 24.640625 -29.21875 C 26.703125 -27.3125 27.734375 -24.773438 27.734375 -21.609375 L 27.734375 -0.8125 C 27.734375 -0.269531 27.460938 0 26.921875 0 L 24.109375 0 C 23.566406 0 23.296875 -0.269531 23.296875 -0.8125 L 23.296875 -3.0625 C 23.296875 -3.1875 23.253906 -3.269531 23.171875 -3.3125 C 23.085938 -3.351562 23.003906 -3.3125 22.921875 -3.1875 C 21.796875 -1.976562 20.390625 -1.0625 18.703125 -0.4375 C 17.015625 0.1875 15.171875 0.5 13.171875 0.5 C 10.265625 0.5 7.820312 -0.25 5.84375 -1.75 C 3.863281 -3.25 2.875 -5.539062 2.875 -8.625 C 2.875 -11.738281 4.007812 -14.203125 6.28125 -16.015625 C 8.550781 -17.828125 11.703125 -18.734375 15.734375 -18.734375 L 22.984375 -18.734375 C 23.191406 -18.734375 23.296875 -18.835938 23.296875 -19.046875 L 23.296875 -21.359375 C 23.296875 -23.484375 22.703125 -25.160156 21.515625 -26.390625 C 20.328125 -27.617188 18.484375 -28.234375 15.984375 -28.234375 C 14.023438 -28.234375 12.421875 -27.859375 11.171875 -27.109375 C 9.929688 -26.359375 9.144531 -25.316406 8.8125 -23.984375 C 8.6875 -23.484375 8.375 -23.273438 7.875 -23.359375 L 4.8125 -23.734375 C 4.269531 -23.816406 4.019531 -24.046875 4.0625 -24.421875 C 4.476562 -26.710938 5.753906 -28.5625 7.890625 -29.96875 C 10.035156 -31.382812 12.710938 -32.09375 15.921875 -32.09375 Z M 14.171875 -3.3125 C 16.628906 -3.3125 18.765625 -3.925781 20.578125 -5.15625 C 22.390625 -6.382812 23.296875 -8.039062 23.296875 -10.125 L 23.296875 -14.921875 C 23.296875 -15.128906 23.191406 -15.234375 22.984375 -15.234375 L 16.421875 -15.234375 C 13.671875 -15.234375 11.460938 -14.671875 9.796875 -13.546875 C 8.140625 -12.421875 7.3125 -10.863281 7.3125 -8.875 C 7.3125 -7.039062 7.953125 -5.65625 9.234375 -4.71875 C 10.523438 -3.78125 12.171875 -3.3125 14.171875 -3.3125 Z M 14.171875 -3.3125 "/></g></g></g><g fill="#4f83a5" fill-opacity="1"><g transform="translate(94.302787, 326.723242)"><g><path d="M 15.359375 0.3125 C 13.023438 0.3125 10.953125 -0.0625 9.140625 -0.8125 C 7.335938 -1.5625 5.945312 -2.5625 4.96875 -3.8125 C 3.988281 -5.0625 3.5 -6.457031 3.5 -8 L 3.5 -8.5625 C 3.5 -9.101562 3.769531 -9.375 4.3125 -9.375 L 7 -9.375 C 7.25 -9.375 7.445312 -9.320312 7.59375 -9.21875 C 7.738281 -9.113281 7.8125 -8.976562 7.8125 -8.8125 L 7.8125 -8.25 C 7.8125 -6.875 8.515625 -5.675781 9.921875 -4.65625 C 11.335938 -3.632812 13.128906 -3.125 15.296875 -3.125 C 17.460938 -3.125 19.210938 -3.613281 20.546875 -4.59375 C 21.878906 -5.570312 22.546875 -6.8125 22.546875 -8.3125 C 22.546875 -9.351562 22.210938 -10.203125 21.546875 -10.859375 C 20.878906 -11.523438 20.066406 -12.046875 19.109375 -12.421875 C 18.148438 -12.796875 16.710938 -13.273438 14.796875 -13.859375 C 12.460938 -14.523438 10.546875 -15.191406 9.046875 -15.859375 C 7.554688 -16.523438 6.289062 -17.453125 5.25 -18.640625 C 4.207031 -19.828125 3.6875 -21.335938 3.6875 -23.171875 C 3.6875 -25.835938 4.738281 -27.957031 6.84375 -29.53125 C 8.945312 -31.113281 11.703125 -31.90625 15.109375 -31.90625 C 17.398438 -31.90625 19.429688 -31.53125 21.203125 -30.78125 C 22.972656 -30.039062 24.335938 -29.015625 25.296875 -27.703125 C 26.253906 -26.390625 26.734375 -24.921875 26.734375 -23.296875 C 26.734375 -22.753906 26.460938 -22.484375 25.921875 -22.484375 L 23.359375 -22.484375 C 22.816406 -22.484375 22.546875 -22.628906 22.546875 -22.921875 L 22.546875 -23.296875 C 22.546875 -24.710938 21.867188 -25.898438 20.515625 -26.859375 C 19.160156 -27.816406 17.335938 -28.296875 15.046875 -28.296875 C 12.921875 -28.296875 11.210938 -27.867188 9.921875 -27.015625 C 8.640625 -26.160156 8 -24.984375 8 -23.484375 C 8 -22.066406 8.609375 -20.984375 9.828125 -20.234375 C 11.054688 -19.484375 12.984375 -18.734375 15.609375 -17.984375 C 18.023438 -17.316406 19.984375 -16.671875 21.484375 -16.046875 C 22.984375 -15.421875 24.273438 -14.503906 25.359375 -13.296875 C 26.441406 -12.085938 26.984375 -10.53125 26.984375 -8.625 C 26.984375 -5.914062 25.929688 -3.75 23.828125 -2.125 C 21.722656 -0.5 18.898438 0.3125 15.359375 0.3125 Z M 15.359375 0.3125 "/></g></g></g><g fill="#4f83a5" fill-opacity="1"><g transform="translate(124.399008, 326.723242)"><g><path d="M 5.8125 0 C 5.269531 0 5 -0.269531 5 -0.8125 L 5 -42.90625 C 5 -43.445312 5.269531 -43.71875 5.8125 -43.71875 L 8.625 -43.71875 C 9.164062 -43.71875 9.4375 -43.445312 9.4375 -42.90625 L 9.4375 -17.671875 C 9.4375 -17.546875 9.476562 -17.453125 9.5625 -17.390625 C 9.644531 -17.328125 9.726562 -17.359375 9.8125 -17.484375 L 22.859375 -31.171875 C 23.109375 -31.453125 23.441406 -31.59375 23.859375 -31.59375 L 27.171875 -31.59375 C 27.628906 -31.59375 27.859375 -31.429688 27.859375 -31.109375 C 27.859375 -30.984375 27.796875 -30.816406 27.671875 -30.609375 L 19.921875 -22.046875 C 19.796875 -21.921875 19.773438 -21.773438 19.859375 -21.609375 L 29.234375 -0.9375 C 29.316406 -0.769531 29.359375 -0.644531 29.359375 -0.5625 C 29.359375 -0.1875 29.109375 0 28.609375 0 L 25.671875 0 C 25.253906 0 24.941406 -0.207031 24.734375 -0.625 L 16.796875 -18.671875 C 16.753906 -18.753906 16.691406 -18.804688 16.609375 -18.828125 C 16.523438 -18.847656 16.441406 -18.816406 16.359375 -18.734375 L 9.5625 -11.609375 C 9.476562 -11.441406 9.4375 -11.296875 9.4375 -11.171875 L 9.4375 -0.8125 C 9.4375 -0.269531 9.164062 0 8.625 0 Z M 5.8125 0 "/></g></g></g><g fill="#4f83a5" fill-opacity="1"><g transform="translate(155.681611, 326.723242)"><g><path d="M 36.96875 -32.03125 C 40.09375 -32.03125 42.5625 -31.09375 44.375 -29.21875 C 46.1875 -27.351562 47.09375 -24.796875 47.09375 -21.546875 L 47.09375 -0.8125 C 47.09375 -0.269531 46.820312 0 46.28125 0 L 43.53125 0 C 42.988281 0 42.71875 -0.269531 42.71875 -0.8125 L 42.71875 -20.671875 C 42.71875 -22.960938 42.0625 -24.785156 40.75 -26.140625 C 39.4375 -27.492188 37.71875 -28.171875 35.59375 -28.171875 C 33.382812 -28.171875 31.601562 -27.503906 30.25 -26.171875 C 28.90625 -24.835938 28.234375 -23.046875 28.234375 -20.796875 L 28.234375 -0.8125 C 28.234375 -0.269531 27.960938 0 27.421875 0 L 24.609375 0 C 24.066406 0 23.796875 -0.269531 23.796875 -0.8125 L 23.796875 -20.671875 C 23.796875 -22.960938 23.148438 -24.785156 21.859375 -26.140625 C 20.566406 -27.492188 18.835938 -28.171875 16.671875 -28.171875 C 14.460938 -28.171875 12.703125 -27.503906 11.390625 -26.171875 C 10.085938 -24.835938 9.4375 -23.046875 9.4375 -20.796875 L 9.4375 -0.8125 C 9.4375 -0.269531 9.164062 0 8.625 0 L 5.8125 0 C 5.269531 0 5 -0.269531 5 -0.8125 L 5 -30.796875 C 5 -31.328125 5.269531 -31.59375 5.8125 -31.59375 L 8.625 -31.59375 C 9.164062 -31.59375 9.4375 -31.328125 9.4375 -30.796875 L 9.4375 -28.609375 C 9.4375 -28.484375 9.476562 -28.398438 9.5625 -28.359375 C 9.644531 -28.316406 9.726562 -28.359375 9.8125 -28.484375 C 10.71875 -29.691406 11.878906 -30.582031 13.296875 -31.15625 C 14.710938 -31.738281 16.296875 -32.03125 18.046875 -32.03125 C 20.171875 -32.03125 22.003906 -31.59375 23.546875 -30.71875 C 25.085938 -29.851562 26.253906 -28.628906 27.046875 -27.046875 C 27.171875 -26.796875 27.296875 -26.773438 27.421875 -26.984375 C 28.335938 -28.691406 29.625 -29.957031 31.28125 -30.78125 C 32.945312 -31.613281 34.84375 -32.03125 36.96875 -32.03125 Z M 36.96875 -32.03125 "/></g></g></g><g fill="#4f83a5" fill-opacity="1"><g transform="translate(207.319741, 326.723242)"><g><path d="M 15.921875 -32.09375 C 19.671875 -32.09375 22.578125 -31.132812 24.640625 -29.21875 C 26.703125 -27.3125 27.734375 -24.773438 27.734375 -21.609375 L 27.734375 -0.8125 C 27.734375 -0.269531 27.460938 0 26.921875 0 L 24.109375 0 C 23.566406 0 23.296875 -0.269531 23.296875 -0.8125 L 23.296875 -3.0625 C 23.296875 -3.1875 23.253906 -3.269531 23.171875 -3.3125 C 23.085938 -3.351562 23.003906 -3.3125 22.921875 -3.1875 C 21.796875 -1.976562 20.390625 -1.0625 18.703125 -0.4375 C 17.015625 0.1875 15.171875 0.5 13.171875 0.5 C 10.265625 0.5 7.820312 -0.25 5.84375 -1.75 C 3.863281 -3.25 2.875 -5.539062 2.875 -8.625 C 2.875 -11.738281 4.007812 -14.203125 6.28125 -16.015625 C 8.550781 -17.828125 11.703125 -18.734375 15.734375 -18.734375 L 22.984375 -18.734375 C 23.191406 -18.734375 23.296875 -18.835938 23.296875 -19.046875 L 23.296875 -21.359375 C 23.296875 -23.484375 22.703125 -25.160156 21.515625 -26.390625 C 20.328125 -27.617188 18.484375 -28.234375 15.984375 -28.234375 C 14.023438 -28.234375 12.421875 -27.859375 11.171875 -27.109375 C 9.929688 -26.359375 9.144531 -25.316406 8.8125 -23.984375 C 8.6875 -23.484375 8.375 -23.273438 7.875 -23.359375 L 4.8125 -23.734375 C 4.269531 -23.816406 4.019531 -24.046875 4.0625 -24.421875 C 4.476562 -26.710938 5.753906 -28.5625 7.890625 -29.96875 C 10.035156 -31.382812 12.710938 -32.09375 15.921875 -32.09375 Z M 14.171875 -3.3125 C 16.628906 -3.3125 18.765625 -3.925781 20.578125 -5.15625 C 22.390625 -6.382812 23.296875 -8.039062 23.296875 -10.125 L 23.296875 -14.921875 C 23.296875 -15.128906 23.191406 -15.234375 22.984375 -15.234375 L 16.421875 -15.234375 C 13.671875 -15.234375 11.460938 -14.671875 9.796875 -13.546875 C 8.140625 -12.421875 7.3125 -10.863281 7.3125 -8.875 C 7.3125 -7.039062 7.953125 -5.65625 9.234375 -4.71875 C 10.523438 -3.78125 12.171875 -3.3125 14.171875 -3.3125 Z M 14.171875 -3.3125 "/></g></g></g><g fill="#4f83a5" fill-opacity="1"><g transform="translate(239.226737, 326.723242)"><g><path d="M 15.359375 0.3125 C 13.023438 0.3125 10.953125 -0.0625 9.140625 -0.8125 C 7.335938 -1.5625 5.945312 -2.5625 4.96875 -3.8125 C 3.988281 -5.0625 3.5 -6.457031 3.5 -8 L 3.5 -8.5625 C 3.5 -9.101562 3.769531 -9.375 4.3125 -9.375 L 7 -9.375 C 7.25 -9.375 7.445312 -9.320312 7.59375 -9.21875 C 7.738281 -9.113281 7.8125 -8.976562 7.8125 -8.8125 L 7.8125 -8.25 C 7.8125 -6.875 8.515625 -5.675781 9.921875 -4.65625 C 11.335938 -3.632812 13.128906 -3.125 15.296875 -3.125 C 17.460938 -3.125 19.210938 -3.613281 20.546875 -4.59375 C 21.878906 -5.570312 22.546875 -6.8125 22.546875 -8.3125 C 22.546875 -9.351562 22.210938 -10.203125 21.546875 -10.859375 C 20.878906 -11.523438 20.066406 -12.046875 19.109375 -12.421875 C 18.148438 -12.796875 16.710938 -13.273438 14.796875 -13.859375 C 12.460938 -14.523438 10.546875 -15.191406 9.046875 -15.859375 C 7.554688 -16.523438 6.289062 -17.453125 5.25 -18.640625 C 4.207031 -19.828125 3.6875 -21.335938 3.6875 -23.171875 C 3.6875 -25.835938 4.738281 -27.957031 6.84375 -29.53125 C 8.945312 -31.113281 11.703125 -31.90625 15.109375 -31.90625 C 17.398438 -31.90625 19.429688 -31.53125 21.203125 -30.78125 C 22.972656 -30.039062 24.335938 -29.015625 25.296875 -27.703125 C 26.253906 -26.390625 26.734375 -24.921875 26.734375 -23.296875 C 26.734375 -22.753906 26.460938 -22.484375 25.921875 -22.484375 L 23.359375 -22.484375 C 22.816406 -22.484375 22.546875 -22.628906 22.546875 -22.921875 L 22.546875 -23.296875 C 22.546875 -24.710938 21.867188 -25.898438 20.515625 -26.859375 C 19.160156 -27.816406 17.335938 -28.296875 15.046875 -28.296875 C 12.921875 -28.296875 11.210938 -27.867188 9.921875 -27.015625 C 8.640625 -26.160156 8 -24.984375 8 -23.484375 C 8 -22.066406 8.609375 -20.984375 9.828125 -20.234375 C 11.054688 -19.484375 12.984375 -18.734375 15.609375 -17.984375 C 18.023438 -17.316406 19.984375 -16.671875 21.484375 -16.046875 C 22.984375 -15.421875 24.273438 -14.503906 25.359375 -13.296875 C 26.441406 -12.085938 26.984375 -10.53125 26.984375 -8.625 C 26.984375 -5.914062 25.929688 -3.75 23.828125 -2.125 C 21.722656 -0.5 18.898438 0.3125 15.359375 0.3125 Z M 15.359375 0.3125 "/></g></g></g><g fill="#4f83a5" fill-opacity="1"><g transform="translate(269.322957, 326.723242)"><g><path d="M 19.171875 -28.734375 C 19.171875 -28.191406 18.898438 -27.921875 18.359375 -27.921875 L 11.546875 -27.921875 C 11.335938 -27.921875 11.234375 -27.816406 11.234375 -27.609375 L 11.234375 -9.375 C 11.234375 -7.375 11.679688 -5.96875 12.578125 -5.15625 C 13.472656 -4.34375 14.878906 -3.9375 16.796875 -3.9375 L 18.171875 -3.9375 C 18.710938 -3.9375 18.984375 -3.664062 18.984375 -3.125 L 18.984375 -0.9375 C 18.984375 -0.394531 18.710938 -0.101562 18.171875 -0.0625 L 16.046875 -0.0625 C 13.046875 -0.0625 10.773438 -0.625 9.234375 -1.75 C 7.703125 -2.875 6.9375 -4.957031 6.9375 -8 L 6.9375 -27.609375 C 6.9375 -27.816406 6.832031 -27.921875 6.625 -27.921875 L 3.0625 -27.921875 C 2.519531 -27.921875 2.25 -28.191406 2.25 -28.734375 L 2.25 -30.796875 C 2.25 -31.328125 2.519531 -31.59375 3.0625 -31.59375 L 6.625 -31.59375 C 6.832031 -31.59375 6.9375 -31.695312 6.9375 -31.90625 L 6.9375 -38.90625 C 6.9375 -39.445312 7.207031 -39.71875 7.75 -39.71875 L 10.421875 -39.71875 C 10.960938 -39.71875 11.234375 -39.445312 11.234375 -38.90625 L 11.234375 -31.90625 C 11.234375 -31.695312 11.335938 -31.59375 11.546875 -31.59375 L 18.359375 -31.59375 C 18.898438 -31.59375 19.171875 -31.328125 19.171875 -30.796875 Z M 19.171875 -28.734375 "/></g></g></g><g fill="#4f83a5" fill-opacity="1"><g transform="translate(292.05123, 326.723242)"><g><path d="M 17.296875 -3.3125 C 19.171875 -3.351562 20.785156 -3.78125 22.140625 -4.59375 C 23.492188 -5.40625 24.546875 -6.539062 25.296875 -8 C 25.378906 -8.207031 25.523438 -8.351562 25.734375 -8.4375 C 25.941406 -8.519531 26.148438 -8.5 26.359375 -8.375 L 28.171875 -7.375 C 28.671875 -7.082031 28.796875 -6.726562 28.546875 -6.3125 C 27.546875 -4.226562 26.046875 -2.570312 24.046875 -1.34375 C 22.046875 -0.113281 19.671875 0.5 16.921875 0.5 C 14.003906 0.5 11.546875 -0.1875 9.546875 -1.5625 C 7.554688 -2.9375 6.125 -4.851562 5.25 -7.3125 C 4.457031 -9.382812 4.0625 -12.253906 4.0625 -15.921875 C 4.0625 -17.710938 4.09375 -19.140625 4.15625 -20.203125 C 4.21875 -21.265625 4.375 -22.253906 4.625 -23.171875 C 5.332031 -25.878906 6.753906 -28.039062 8.890625 -29.65625 C 11.035156 -31.28125 13.628906 -32.09375 16.671875 -32.09375 C 20.296875 -32.09375 23.140625 -31.15625 25.203125 -29.28125 C 27.265625 -27.414062 28.585938 -24.773438 29.171875 -21.359375 C 29.421875 -20.023438 29.546875 -17.941406 29.546875 -15.109375 C 29.546875 -14.566406 29.273438 -14.296875 28.734375 -14.296875 L 8.75 -14.296875 C 8.539062 -14.296875 8.4375 -14.191406 8.4375 -13.984375 C 8.4375 -11.898438 8.5625 -10.382812 8.8125 -9.4375 C 9.269531 -7.5625 10.234375 -6.070312 11.703125 -4.96875 C 13.179688 -3.863281 15.046875 -3.3125 17.296875 -3.3125 Z M 16.671875 -28.234375 C 14.585938 -28.234375 12.878906 -27.703125 11.546875 -26.640625 C 10.222656 -25.578125 9.351562 -24.148438 8.9375 -22.359375 C 8.6875 -21.523438 8.519531 -20.109375 8.4375 -18.109375 C 8.4375 -17.898438 8.539062 -17.796875 8.75 -17.796875 L 24.796875 -17.796875 C 25.003906 -17.796875 25.109375 -17.898438 25.109375 -18.109375 C 25.023438 -19.941406 24.898438 -21.273438 24.734375 -22.109375 C 24.273438 -23.984375 23.347656 -25.472656 21.953125 -26.578125 C 20.554688 -27.679688 18.796875 -28.234375 16.671875 -28.234375 Z M 16.671875 -28.234375 "/></g></g></g><g fill="#4f83a5" fill-opacity="1"><g transform="translate(325.394355, 326.723242)"><g><path d="M 17.734375 -31.90625 C 19.109375 -31.90625 20.253906 -31.660156 21.171875 -31.171875 C 21.585938 -31.003906 21.734375 -30.671875 21.609375 -30.171875 L 20.984375 -27.421875 C 20.859375 -26.921875 20.523438 -26.753906 19.984375 -26.921875 C 19.191406 -27.171875 18.171875 -27.273438 16.921875 -27.234375 C 14.753906 -27.148438 12.960938 -26.347656 11.546875 -24.828125 C 10.140625 -23.304688 9.4375 -21.378906 9.4375 -19.046875 L 9.4375 -0.8125 C 9.4375 -0.269531 9.164062 0 8.625 0 L 5.8125 0 C 5.269531 0 5 -0.269531 5 -0.8125 L 5 -30.796875 C 5 -31.328125 5.269531 -31.59375 5.8125 -31.59375 L 8.625 -31.59375 C 9.164062 -31.59375 9.4375 -31.328125 9.4375 -30.796875 L 9.4375 -27.296875 C 9.4375 -27.128906 9.46875 -27.035156 9.53125 -27.015625 C 9.59375 -26.992188 9.664062 -27.046875 9.75 -27.171875 C 10.613281 -28.671875 11.722656 -29.832031 13.078125 -30.65625 C 14.429688 -31.488281 15.984375 -31.90625 17.734375 -31.90625 Z M 17.734375 -31.90625 "/></g></g></g></svg>