<svg xmlns="http://www.w3.org/2000/svg" xmlns:xlink="http://www.w3.org/1999/xlink" width="512" zoomAndPan="magnify" viewBox="0 0 384 383.999986" height="512" preserveAspectRatio="xMidYMid meet" version="1.0"><defs><clipPath id="f7f53651cf"><path d="M 189 31.273438 L 195 31.273438 L 195 54 L 189 54 Z M 189 31.273438 " clip-rule="nonzero"/></clipPath><clipPath id="9f0fab42f0"><path d="M 310 191 L 331.71875 191 L 331.71875 201 L 310 201 Z M 310 191 " clip-rule="nonzero"/></clipPath><clipPath id="2f46d6f8de"><path d="M 310 146 L 331.71875 146 L 331.71875 155 L 310 155 Z M 310 146 " clip-rule="nonzero"/></clipPath></defs><path fill="#4f83a5" d="M 191.960938 65.542969 C 132.949219 65.542969 84.941406 113.550781 84.941406 172.5625 C 84.941406 231.574219 132.949219 279.582031 191.960938 279.582031 C 250.96875 279.582031 298.980469 231.574219 298.980469 172.5625 C 298.980469 113.550781 250.96875 65.542969 191.960938 65.542969 Z M 191.960938 273.878906 C 136.09375 273.878906 90.644531 228.429688 90.644531 172.5625 C 90.644531 116.695312 136.09375 71.246094 191.960938 71.246094 C 247.828125 71.246094 293.277344 116.695312 293.277344 172.5625 C 293.277344 228.429688 247.828125 273.878906 191.960938 273.878906 Z M 191.960938 273.878906 " fill-opacity="1" fill-rule="nonzero"/><path fill="#4f83a5" d="M 230.128906 277.355469 C 228.554688 277.355469 227.277344 278.632812 227.277344 280.207031 L 227.277344 299.566406 C 227.277344 303.574219 224.015625 306.835938 220.007812 306.835938 L 163.910156 306.835938 C 159.90625 306.835938 156.644531 303.574219 156.644531 299.566406 L 156.644531 280.207031 C 156.644531 278.632812 155.367188 277.355469 153.792969 277.355469 C 152.21875 277.355469 150.941406 278.632812 150.941406 280.207031 L 150.941406 299.566406 C 150.941406 306.015625 155.675781 311.363281 161.847656 312.359375 L 161.847656 324.367188 C 161.847656 324.371094 161.84375 324.375 161.84375 324.375 C 161.84375 324.378906 161.847656 324.382812 161.847656 324.382812 L 161.847656 334.296875 C 161.847656 334.296875 161.84375 334.300781 161.84375 334.304688 C 161.84375 334.304688 161.847656 334.308594 161.847656 334.3125 L 161.847656 339.625 C 161.847656 346.777344 167.664062 352.597656 174.816406 352.597656 L 209.105469 352.597656 C 216.257812 352.597656 222.074219 346.777344 222.074219 339.625 L 222.074219 312.359375 C 228.246094 311.363281 232.980469 306.015625 232.980469 299.566406 L 232.980469 280.207031 C 232.980469 278.632812 231.703125 277.355469 230.128906 277.355469 Z M 216.371094 339.625 C 216.371094 343.632812 213.113281 346.894531 209.105469 346.894531 L 174.816406 346.894531 C 170.808594 346.894531 167.546875 343.632812 167.546875 339.625 L 167.546875 337.152344 L 191.960938 337.152344 C 193.535156 337.152344 194.8125 335.878906 194.8125 334.304688 C 194.8125 332.726562 193.535156 331.453125 191.960938 331.453125 L 167.546875 331.453125 L 167.546875 327.226562 L 191.960938 327.226562 C 193.535156 327.226562 194.8125 325.949219 194.8125 324.375 C 194.8125 322.800781 193.535156 321.523438 191.960938 321.523438 L 167.546875 321.523438 L 167.546875 312.539062 L 216.371094 312.539062 Z M 216.371094 339.625 " fill-opacity="1" fill-rule="nonzero"/><g clip-path="url(#f7f53651cf)"><path fill="#4f83a5" d="M 191.960938 53.21875 C 193.535156 53.21875 194.8125 51.941406 194.8125 50.367188 L 194.8125 34.25 C 194.8125 32.675781 193.535156 31.398438 191.960938 31.398438 C 190.386719 31.398438 189.109375 32.675781 189.109375 34.25 L 189.109375 50.363281 C 189.109375 51.941406 190.386719 53.21875 191.960938 53.21875 Z M 191.960938 53.21875 " fill-opacity="1" fill-rule="nonzero"/></g><path fill="#4f83a5" d="M 147.234375 58.753906 C 147.65625 59.914062 148.75 60.632812 149.914062 60.632812 C 150.238281 60.632812 150.566406 60.574219 150.890625 60.457031 C 152.367188 59.921875 153.132812 58.285156 152.59375 56.804688 L 147.082031 41.660156 C 146.542969 40.179688 144.90625 39.421875 143.425781 39.957031 C 141.945312 40.496094 141.183594 42.132812 141.722656 43.609375 Z M 147.234375 58.753906 " fill-opacity="1" fill-rule="nonzero"/><path fill="#4f83a5" d="M 110.753906 80.960938 C 111.320312 81.632812 112.125 81.976562 112.941406 81.976562 C 113.585938 81.976562 114.238281 81.757812 114.769531 81.3125 C 115.976562 80.296875 116.136719 78.5 115.121094 77.292969 L 104.761719 64.949219 C 103.75 63.742188 101.953125 63.585938 100.746094 64.597656 C 99.539062 65.609375 99.382812 67.410156 100.394531 68.613281 Z M 110.753906 80.960938 " fill-opacity="1" fill-rule="nonzero"/><path fill="#4f83a5" d="M 70.113281 106.246094 L 84.070312 114.304688 C 84.519531 114.5625 85.007812 114.683594 85.492188 114.683594 C 86.480469 114.683594 87.4375 114.171875 87.964844 113.257812 C 88.75 111.894531 88.285156 110.152344 86.921875 109.363281 L 72.964844 101.308594 C 71.597656 100.519531 69.855469 100.988281 69.070312 102.351562 C 68.28125 103.714844 68.75 105.457031 70.113281 106.246094 Z M 70.113281 106.246094 " fill-opacity="1" fill-rule="nonzero"/><path fill="#4f83a5" d="M 54.527344 151.964844 L 70.398438 154.761719 C 70.566406 154.792969 70.730469 154.804688 70.894531 154.804688 C 72.253906 154.804688 73.457031 153.832031 73.699219 152.449219 C 73.972656 150.898438 72.9375 149.417969 71.386719 149.144531 L 55.515625 146.347656 C 53.96875 146.074219 52.488281 147.109375 52.214844 148.660156 C 51.941406 150.210938 52.976562 151.691406 54.527344 151.964844 Z M 54.527344 151.964844 " fill-opacity="1" fill-rule="nonzero"/><path fill="#4f83a5" d="M 73.699219 194.152344 C 73.425781 192.601562 71.945312 191.566406 70.398438 191.839844 L 54.527344 194.640625 C 52.976562 194.914062 51.941406 196.390625 52.214844 197.945312 C 52.457031 199.328125 53.660156 200.300781 55.019531 200.300781 C 55.183594 200.300781 55.351562 200.285156 55.519531 200.257812 L 71.386719 197.457031 C 72.9375 197.183594 73.972656 195.703125 73.699219 194.152344 Z M 73.699219 194.152344 " fill-opacity="1" fill-rule="nonzero"/><path fill="#4f83a5" d="M 84.070312 232.300781 L 70.113281 240.359375 C 68.75 241.144531 68.285156 242.890625 69.070312 244.253906 C 69.597656 245.167969 70.558594 245.679688 71.542969 245.679688 C 72.027344 245.679688 72.515625 245.558594 72.964844 245.296875 L 86.921875 237.238281 C 88.285156 236.453125 88.75 234.707031 87.964844 233.34375 C 87.175781 231.980469 85.433594 231.511719 84.070312 232.300781 Z M 84.070312 232.300781 " fill-opacity="1" fill-rule="nonzero"/><path fill="#4f83a5" d="M 110.753906 265.644531 L 100.398438 277.984375 C 99.382812 279.191406 99.542969 280.992188 100.746094 282.003906 C 101.28125 282.453125 101.933594 282.671875 102.578125 282.671875 C 103.390625 282.671875 104.199219 282.324219 104.765625 281.652344 L 115.121094 269.308594 C 116.136719 268.101562 115.976562 266.304688 114.769531 265.292969 C 113.566406 264.277344 111.765625 264.4375 110.753906 265.644531 Z M 110.753906 265.644531 " fill-opacity="1" fill-rule="nonzero"/><path fill="#4f83a5" d="M 273.164062 265.640625 C 272.148438 264.4375 270.351562 264.277344 269.144531 265.292969 C 267.941406 266.304688 267.78125 268.101562 268.796875 269.308594 L 279.15625 281.652344 C 279.71875 282.324219 280.527344 282.671875 281.339844 282.671875 C 281.988281 282.671875 282.640625 282.449219 283.171875 282.003906 C 284.378906 280.992188 284.535156 279.191406 283.523438 277.984375 Z M 273.164062 265.640625 " fill-opacity="1" fill-rule="nonzero"/><path fill="#4f83a5" d="M 313.804688 240.355469 L 299.847656 232.300781 C 298.484375 231.511719 296.742188 231.980469 295.953125 233.34375 C 295.167969 234.707031 295.632812 236.449219 296.996094 237.238281 L 310.953125 245.292969 C 311.402344 245.554688 311.894531 245.675781 312.378906 245.675781 C 313.363281 245.675781 314.320312 245.164062 314.851562 244.25 C 315.636719 242.886719 315.167969 241.144531 313.804688 240.355469 Z M 313.804688 240.355469 " fill-opacity="1" fill-rule="nonzero"/><g clip-path="url(#9f0fab42f0)"><path fill="#4f83a5" d="M 329.390625 194.640625 L 313.523438 191.839844 C 311.976562 191.570312 310.492188 192.605469 310.21875 194.15625 C 309.945312 195.707031 310.980469 197.183594 312.53125 197.457031 L 328.402344 200.253906 C 328.570312 200.285156 328.734375 200.300781 328.898438 200.300781 C 330.257812 200.300781 331.460938 199.324219 331.703125 197.941406 C 331.980469 196.390625 330.941406 194.914062 329.390625 194.640625 Z M 329.390625 194.640625 " fill-opacity="1" fill-rule="nonzero"/></g><g clip-path="url(#2f46d6f8de)"><path fill="#4f83a5" d="M 310.21875 152.449219 C 310.464844 153.832031 311.664062 154.804688 313.023438 154.804688 C 313.1875 154.804688 313.355469 154.792969 313.523438 154.761719 L 329.394531 151.960938 C 330.941406 151.6875 331.980469 150.210938 331.703125 148.660156 C 331.429688 147.109375 329.953125 146.074219 328.402344 146.347656 L 312.53125 149.148438 C 310.980469 149.421875 309.945312 150.898438 310.21875 152.449219 Z M 310.21875 152.449219 " fill-opacity="1" fill-rule="nonzero"/></g><path fill="#4f83a5" d="M 298.425781 114.6875 C 298.910156 114.6875 299.398438 114.5625 299.847656 114.304688 L 313.804688 106.242188 C 315.167969 105.457031 315.636719 103.710938 314.847656 102.347656 C 314.0625 100.984375 312.316406 100.519531 310.953125 101.304688 L 296.996094 109.367188 C 295.632812 110.152344 295.167969 111.894531 295.953125 113.261719 C 296.480469 114.175781 297.441406 114.6875 298.425781 114.6875 Z M 298.425781 114.6875 " fill-opacity="1" fill-rule="nonzero"/><path fill="#4f83a5" d="M 270.976562 81.980469 C 271.792969 81.980469 272.597656 81.632812 273.164062 80.960938 L 283.523438 68.613281 C 284.535156 67.40625 284.378906 65.609375 283.171875 64.597656 C 281.964844 63.585938 280.167969 63.742188 279.152344 64.949219 L 268.792969 77.296875 C 267.78125 78.503906 267.941406 80.300781 269.144531 81.3125 C 269.679688 81.761719 270.332031 81.980469 270.976562 81.980469 Z M 270.976562 81.980469 " fill-opacity="1" fill-rule="nonzero"/><path fill="#4f83a5" d="M 233.027344 60.460938 C 233.351562 60.578125 233.679688 60.632812 234.003906 60.632812 C 235.167969 60.632812 236.261719 59.914062 236.683594 58.757812 L 242.195312 43.609375 C 242.734375 42.128906 241.972656 40.496094 240.492188 39.957031 C 239.007812 39.417969 237.375 40.179688 236.835938 41.660156 L 231.324219 56.804688 C 230.785156 58.285156 231.550781 59.921875 233.027344 60.460938 Z M 233.027344 60.460938 " fill-opacity="1" fill-rule="nonzero"/><path fill="#4f83a5" d="M 246.671875 132.273438 L 172.148438 206.800781 L 137.25 171.898438 C 136.136719 170.785156 134.328125 170.785156 133.214844 171.898438 C 132.101562 173.011719 132.101562 174.820312 133.214844 175.933594 L 170.132812 212.847656 C 170.667969 213.382812 171.390625 213.683594 172.148438 213.683594 C 172.902344 213.683594 173.628906 213.382812 174.164062 212.847656 L 250.707031 136.308594 C 251.820312 135.191406 251.820312 133.386719 250.707031 132.273438 C 249.59375 131.160156 247.785156 131.160156 246.671875 132.273438 Z M 246.671875 132.273438 " fill-opacity="1" fill-rule="nonzero"/></svg>